<?xml version="1.0" encoding="UTF-8"?>
<!-- Generator: visioncortex VTracer 0.6.3 -->
<svg version="1.1" xmlns="http://www.w3.org/2000/svg" width="1280" height="1280">
<path d="M0 0 C2.19 0 4.37 -0.02 6.56 -0.05 C7.97 -0.05 9.38 -0.05 10.79 -0.05 C12.05 -0.05 13.32 -0.05 14.62 -0.06 C18.84 0.37 21.47 1.48 25.26 3.32 C27.07 4.05 28.88 4.78 30.7 5.5 C31.99 6.02 31.99 6.02 33.32 6.55 C33.96 6.8 34.6 7.05 35.26 7.32 C35.26 7.98 35.26 8.64 35.26 9.32 C36.1 9.46 36.1 9.46 36.96 9.6 C39.83 10.49 41.66 11.9 44.01 13.75 C45.21 14.68 45.21 14.68 46.43 15.62 C47.04 16.18 47.64 16.74 48.26 17.32 C48.26 17.98 48.26 18.64 48.26 19.32 C48.92 19.32 49.58 19.32 50.26 19.32 C55.7 25.64 59.91 32.7 63.26 40.32 C63.59 41.05 63.93 41.79 64.27 42.54 C66.83 49.7 67.62 56.62 67.57 64.19 C67.57 65.07 67.56 65.95 67.56 66.85 C67.31 80.4 62.16 91.82 55.26 103.32 C54.6 103.32 53.94 103.32 53.26 103.32 C52.93 104.31 52.6 105.3 52.26 106.32 C51.6 106.32 50.94 106.32 50.26 106.32 C49.99 106.91 49.72 107.51 49.45 108.13 C48.26 110.31 47.16 111.73 45.26 113.32 C44.6 113.32 43.94 113.32 43.26 113.32 C43.26 113.98 43.26 114.64 43.26 115.32 C41.2 116.74 39.16 118.04 37.01 119.32 C36.42 119.67 35.84 120.03 35.23 120.39 C32.29 122.17 29.34 123.78 26.26 125.32 C26.26 167.89 26.26 210.46 26.26 254.32 C52.66 254.32 79.06 254.32 106.26 254.32 C106.31 245.25 106.36 236.19 106.41 226.85 C106.44 221.1 106.48 215.36 106.52 209.61 C106.58 200.49 106.64 191.37 106.68 182.25 C106.71 175.61 106.75 168.97 106.8 162.33 C106.83 158.82 106.85 155.3 106.86 151.79 C106.88 147.86 106.91 143.93 106.94 140 C106.94 138.26 106.94 138.26 106.95 136.5 C107.12 119.63 107.12 119.63 113.2 113.38 C113.89 112.65 114.58 111.92 115.29 111.16 C120.02 106.73 124.94 105.84 131.26 105.32 C134.44 105.69 137.17 106.4 140.26 107.32 C140.26 107.98 140.26 108.64 140.26 109.32 C141.16 109.47 141.16 109.47 142.07 109.63 C144.63 110.43 145.58 111.3 147.32 113.32 C147.81 113.85 148.29 114.39 148.8 114.94 C153.51 122.58 153.68 130.42 153.6 139.18 C153.6 140.44 153.6 141.7 153.6 143 C153.6 146.42 153.59 149.85 153.56 153.28 C153.55 156.87 153.54 160.46 153.54 164.05 C153.53 170.84 153.51 177.63 153.48 184.42 C153.44 193.6 153.42 202.78 153.4 211.97 C153.37 226.42 153.31 240.87 153.26 255.32 C180.65 254.99 208.04 254.66 236.26 254.32 C236.2 243.13 236.14 231.95 236.08 220.43 C236.06 213.33 236.03 206.24 236.02 199.14 C235.99 187.89 235.95 176.63 235.88 165.37 C235.83 157.18 235.8 148.98 235.79 140.78 C235.78 136.44 235.77 132.1 235.73 127.77 C235.7 123.67 235.69 119.58 235.69 115.49 C235.69 114 235.68 112.51 235.66 111.01 C235.52 99.3 237.15 87.77 245.51 78.91 C246.22 78.21 246.22 78.21 246.95 77.5 C247.43 76.99 247.92 76.48 248.42 75.95 C249.64 74.68 250.95 73.49 252.26 72.32 C252.92 72.32 253.58 72.32 254.26 72.32 C254.26 71.66 254.26 71 254.26 70.32 C268.37 60.18 287.12 62.06 303.51 62.19 C305.72 62.2 307.93 62.21 310.14 62.22 C315.51 62.24 320.89 62.27 326.26 62.32 C326.45 61.7 326.65 61.09 326.85 60.46 C327.11 59.66 327.37 58.85 327.64 58.02 C327.89 57.22 328.15 56.43 328.41 55.61 C329.59 52.44 331.3 49.94 333.32 47.25 C334.01 46.31 334.71 45.37 335.42 44.41 C336.33 43.37 336.33 43.37 337.26 42.32 C337.92 42.32 338.58 42.32 339.26 42.32 C339.53 41.68 339.8 41.04 340.07 40.38 C341.26 38.32 341.26 38.32 344.26 37.32 C344.26 36.66 344.26 36 344.26 35.32 C358.72 23.7 374.9 19 393.26 20.32 C409.19 22.8 424.94 29.45 435.26 42.32 C435.26 42.98 435.26 43.64 435.26 44.32 C435.92 44.32 436.58 44.32 437.26 44.32 C446.06 54.93 450.98 67.53 451.26 81.32 C451.3 82.45 451.3 82.45 451.34 83.61 C451.39 85.85 451.34 88.07 451.26 90.32 C451.24 91.16 451.23 92 451.21 92.86 C450.65 104.01 445.99 113.89 440.26 123.32 C439.6 123.32 438.94 123.32 438.26 123.32 C437.99 123.9 437.73 124.48 437.46 125.07 C431.16 136.88 418.43 143.96 406.26 148.32 C385.71 153.08 368.49 151.32 350.26 140.32 C347.07 138.19 343.94 136.07 341.26 133.32 C341.26 132.66 341.26 132 341.26 131.32 C340.6 131.32 339.94 131.32 339.26 131.32 C337.81 129.58 336.45 127.78 335.14 125.94 C334.41 124.94 333.69 123.95 332.94 122.92 C331.26 120.32 331.26 120.32 331.26 118.32 C330.6 118.32 329.94 118.32 329.26 118.32 C326.26 111.69 326.26 111.69 326.26 108.32 C311.08 108.32 295.9 108.32 280.26 108.32 C280.59 156.5 280.92 204.68 281.26 254.32 C291.49 254.65 301.72 254.98 312.26 255.32 C340.46 261.82 360.84 274.16 376.7 298.53 C388.26 317.98 387.54 338.91 388.26 361.32 C436.44 361.65 484.62 361.98 534.26 362.32 C534.26 347.14 534.26 331.96 534.26 316.32 C532.61 315.99 530.96 315.66 529.26 315.32 C527.05 314.12 524.89 312.84 522.76 311.5 C521.66 310.82 520.55 310.13 519.42 309.42 C516.55 307.51 513.84 305.61 511.26 303.32 C511.26 302.66 511.26 302 511.26 301.32 C510.6 301.32 509.94 301.32 509.26 301.32 C498.17 288.82 490.16 271.81 490.99 254.79 C493.16 235.07 500.31 218.74 515.56 205.53 C517.26 204.32 517.26 204.32 519.26 204.32 C519.26 203.66 519.26 203 519.26 202.32 C539.82 191.72 539.82 191.72 552.26 191.32 C553.02 191.29 553.78 191.26 554.57 191.23 C556.81 191.19 559.02 191.24 561.26 191.32 C562.5 191.34 562.5 191.34 563.77 191.37 C576.57 192.02 588.43 197.16 598.26 205.32 C598.26 205.98 598.26 206.64 598.26 207.32 C598.84 207.56 599.42 207.81 600.01 208.06 C610.41 213.88 616.52 227.61 620.26 238.32 C624.75 254.45 622.8 271.49 615.26 286.32 C612.8 290.46 610.28 294.55 607.26 298.32 C606.6 298.32 605.94 298.32 605.26 298.32 C604.99 298.96 604.72 299.59 604.45 300.25 C603.26 302.32 603.26 302.32 600.26 303.32 C600.26 303.98 600.26 304.64 600.26 305.32 C598.06 307.16 598.06 307.16 595.14 309.25 C594.18 309.94 593.23 310.63 592.25 311.34 C584.71 316.32 584.71 316.32 580.26 316.32 C580.27 316.87 580.27 317.43 580.28 318 C580.35 323.86 580.39 329.71 580.42 335.57 C580.44 337.75 580.46 339.93 580.49 342.1 C580.82 370.29 580.82 370.29 575.26 383.32 C574.6 383.32 573.94 383.32 573.26 383.32 C573.18 383.88 573.1 384.43 573.01 385.01 C570.66 392.22 562.91 398 556.79 402.06 C547.91 406.46 539.57 406.73 529.83 406.66 C528.28 406.66 526.73 406.66 525.18 406.66 C521 406.66 516.82 406.64 512.64 406.62 C508.27 406.6 503.89 406.6 499.52 406.6 C491.24 406.59 482.96 406.56 474.69 406.53 C463.5 406.49 452.3 406.48 441.11 406.46 C423.5 406.43 405.88 406.37 388.26 406.32 C387.93 433.71 387.6 461.1 387.26 489.32 C401.07 489.26 401.07 489.26 415.16 489.21 C421 489.19 426.84 489.18 432.68 489.17 C441.94 489.15 451.2 489.13 460.47 489.09 C467.21 489.06 473.96 489.04 480.71 489.03 C484.28 489.03 487.85 489.02 491.42 489 C495.41 488.97 499.4 488.97 503.4 488.98 C505.16 488.96 505.16 488.96 506.95 488.94 C515.47 488.97 523.32 489.82 529.82 495.82 C530.48 496.4 531.15 496.99 531.83 497.6 C533.26 499.32 533.26 499.32 533.26 502.32 C533.92 502.32 534.58 502.32 535.26 502.32 C536.94 509.21 538.38 515.66 535.26 522.32 C530.47 528.88 525.97 533.27 517.94 534.92 C512.84 535.67 507.73 535.62 502.58 535.63 C501.34 535.64 500.1 535.65 498.82 535.66 C495.45 535.69 492.08 535.71 488.7 535.72 C485.17 535.74 481.63 535.76 478.1 535.79 C471.41 535.84 464.73 535.87 458.05 535.91 C449.01 535.95 439.97 536.01 430.93 536.07 C416.71 536.17 402.48 536.24 388.26 536.32 C388.26 562.72 388.26 589.12 388.26 616.32 C430.83 616.32 473.4 616.32 517.26 616.32 C519.9 611.7 522.54 607.08 525.26 602.32 C525.92 601.33 526.58 600.34 527.26 599.32 C527.92 599.32 528.58 599.32 529.26 599.32 C529.47 598.78 529.67 598.24 529.89 597.69 C531.79 594.4 534.31 591.72 537.26 589.32 C537.92 589.32 538.58 589.32 539.26 589.32 C539.26 588.66 539.26 588 539.26 587.32 C543.61 584.69 548.05 582.38 552.64 580.19 C553.67 579.69 554.71 579.2 555.78 578.68 C563.17 575.78 570.24 574.95 578.14 575 C579.01 575.01 579.89 575.01 580.79 575.02 C587.35 575.13 593.11 575.96 599.26 578.32 C600.09 578.59 600.93 578.87 601.79 579.16 C608.38 581.52 613.7 585.11 619.26 589.32 C620.02 589.84 620.77 590.36 621.55 590.91 C622.11 591.37 622.68 591.84 623.26 592.32 C623.26 592.98 623.26 593.64 623.26 594.32 C623.92 594.32 624.58 594.32 625.26 594.32 C627.21 596.4 627.21 596.4 629.39 599.13 C630.11 600.02 630.83 600.91 631.58 601.84 C633.26 604.32 633.26 604.32 633.26 607.32 C633.92 607.32 634.58 607.32 635.26 607.32 C636.06 609.02 636.85 610.73 637.64 612.44 C638.08 613.39 638.52 614.34 638.97 615.32 C642.28 623.01 642.6 629.81 642.58 638.06 C642.57 640.24 642.6 642.43 642.62 644.62 C642.62 646.03 642.62 647.43 642.62 648.84 C642.63 650.74 642.63 650.74 642.63 652.68 C642.2 656.89 641.09 659.52 639.26 663.32 C638.52 665.13 637.79 666.94 637.07 668.75 C636.73 669.62 636.38 670.48 636.03 671.37 C635.65 672.34 635.65 672.34 635.26 673.32 C634.6 673.32 633.94 673.32 633.26 673.32 C633.17 673.88 633.07 674.44 632.97 675.02 C632.08 677.88 630.67 679.71 628.82 682.07 C627.9 683.26 627.9 683.26 626.95 684.49 C626.11 685.39 626.11 685.39 625.26 686.32 C624.6 686.32 623.94 686.32 623.26 686.32 C623.26 686.98 623.26 687.64 623.26 688.32 C619.8 691.32 619.8 691.32 617.26 691.32 C617.26 691.98 617.26 692.64 617.26 693.32 C605.32 701.57 592.85 705.72 578.39 705.63 C577.51 705.62 576.63 705.62 575.72 705.61 C562.17 705.37 550.76 700.22 539.26 693.32 C539.26 692.66 539.26 692 539.26 691.32 C538.27 690.99 537.28 690.66 536.26 690.32 C536.26 689.66 536.26 689 536.26 688.32 C535.66 688.05 535.06 687.78 534.45 687.5 C532.26 686.32 530.85 685.22 529.26 683.32 C529.26 682.66 529.26 682 529.26 681.32 C528.6 681.32 527.94 681.32 527.26 681.32 C525.83 679.26 524.53 677.22 523.26 675.07 C522.9 674.48 522.55 673.89 522.18 673.29 C520.41 670.34 518.8 667.39 517.26 664.32 C474.69 664.32 432.12 664.32 388.26 664.32 C388.26 690.72 388.26 717.12 388.26 744.32 C397.32 744.36 406.39 744.41 415.72 744.46 C421.47 744.5 427.22 744.54 432.97 744.57 C442.08 744.63 451.2 744.69 460.32 744.74 C466.96 744.77 473.6 744.81 480.25 744.86 C483.76 744.88 487.27 744.91 490.79 744.92 C494.72 744.93 498.65 744.96 502.58 745 C503.74 745 504.89 745 506.08 745 C522.94 745.18 522.94 745.18 529.2 751.25 C530.29 752.29 530.29 752.29 531.41 753.34 C535.85 758.08 536.74 763 537.26 769.32 C536.89 772.5 536.17 775.23 535.26 778.32 C534.6 778.32 533.94 778.32 533.26 778.32 C533.16 778.91 533.05 779.51 532.95 780.12 C532.14 782.68 531.27 783.63 529.26 785.38 C528.72 785.86 528.19 786.35 527.64 786.85 C519.99 791.56 512.16 791.74 503.4 791.66 C502.14 791.66 500.88 791.66 499.58 791.66 C496.15 791.66 492.73 791.64 489.3 791.62 C485.71 791.6 482.12 791.6 478.52 791.6 C471.74 791.59 464.95 791.56 458.16 791.53 C448.98 791.49 439.79 791.48 430.61 791.46 C416.16 791.43 401.71 791.37 387.26 791.32 C387.59 818.71 387.92 846.1 388.26 874.32 C399.44 874.26 410.63 874.2 422.15 874.14 C429.24 874.11 436.34 874.09 443.43 874.07 C454.69 874.04 465.95 874.01 477.2 873.94 C485.4 873.89 493.6 873.86 501.8 873.85 C506.14 873.84 510.47 873.82 514.81 873.79 C518.9 873.75 522.99 873.74 527.08 873.75 C528.58 873.75 530.07 873.74 531.56 873.72 C543.27 873.58 554.8 875.2 563.67 883.57 C564.13 884.04 564.6 884.52 565.07 885 C565.59 885.49 566.1 885.97 566.63 886.47 C567.9 887.7 569.09 889 570.26 890.32 C570.26 890.98 570.26 891.64 570.26 892.32 C570.92 892.32 571.58 892.32 572.26 892.32 C582.4 906.42 580.51 925.17 580.39 941.57 C580.37 943.78 580.37 945.98 580.36 948.19 C580.34 953.57 580.3 958.94 580.26 964.32 C580.87 964.51 581.48 964.7 582.11 964.9 C582.92 965.16 583.72 965.42 584.55 965.69 C585.75 966.08 585.75 966.08 586.97 966.47 C590.14 967.64 592.63 969.35 595.32 971.38 C596.26 972.07 597.2 972.76 598.17 973.48 C599.2 974.39 599.2 974.39 600.26 975.32 C600.26 975.98 600.26 976.64 600.26 977.32 C600.9 977.58 601.54 977.85 602.2 978.13 C604.26 979.32 604.26 979.32 605.26 982.32 C605.92 982.32 606.58 982.32 607.26 982.32 C618.88 996.78 623.57 1012.95 622.26 1031.32 C619.77 1047.25 613.12 1063 600.26 1073.32 C599.6 1073.32 598.94 1073.32 598.26 1073.32 C598.26 1073.98 598.26 1074.64 598.26 1075.32 C587.65 1084.12 575.04 1089.04 561.26 1089.32 C560.5 1089.34 559.75 1089.37 558.97 1089.4 C556.72 1089.44 554.5 1089.4 552.26 1089.32 C551.42 1089.3 550.58 1089.28 549.71 1089.26 C538.57 1088.7 528.69 1084.04 519.26 1078.32 C519.26 1077.66 519.26 1077 519.26 1076.32 C518.67 1076.04 518.08 1075.76 517.47 1075.48 C505.7 1069.29 498.51 1056.46 494.26 1044.32 C489.03 1025.88 491 1008.76 500.13 991.95 C502.71 987.43 505.52 982.96 509.26 979.32 C509.92 979.32 510.58 979.32 511.26 979.32 C511.26 978.66 511.26 978 511.26 977.32 C513 975.87 514.8 974.51 516.64 973.19 C517.63 972.47 518.63 971.74 519.66 971 C522.26 969.32 522.26 969.32 524.26 969.32 C524.26 968.66 524.26 968 524.26 967.32 C530.89 964.32 530.89 964.32 534.26 964.32 C534.26 949.14 534.26 933.96 534.26 918.32 C486.08 918.65 437.9 918.98 388.26 919.32 C387.93 929.55 387.6 939.78 387.26 950.32 C385.01 962.69 385.01 962.69 383.32 966.57 C382.97 967.39 382.62 968.21 382.26 969.05 C381.93 969.8 381.6 970.55 381.26 971.32 C380.58 973.05 380.58 973.05 379.89 974.82 C371.28 993.35 356.17 1009.97 337.26 1018.32 C333.82 1019.48 330.38 1020.53 326.89 1021.52 C324.36 1022.06 324.36 1022.06 323.26 1023.32 C309.45 1025.83 295.29 1025.86 281.26 1026.32 C280.93 1074.5 280.6 1122.68 280.26 1172.32 C295.44 1172.32 310.62 1172.32 326.26 1172.32 C326.59 1170.67 326.92 1169.02 327.26 1167.32 C327.89 1165.64 328.55 1163.97 329.26 1162.32 C329.92 1162.32 330.58 1162.32 331.26 1162.32 C331.47 1161.66 331.67 1161 331.89 1160.32 C333.75 1156.24 336.24 1152.63 339.26 1149.32 C339.92 1149.32 340.58 1149.32 341.26 1149.32 C341.26 1148.66 341.26 1148 341.26 1147.32 C353.76 1136.22 370.77 1128.21 387.78 1129.04 C407.51 1131.22 423.83 1138.37 437.05 1153.62 C438.26 1155.32 438.26 1155.32 438.26 1157.32 C438.92 1157.32 439.58 1157.32 440.26 1157.32 C450.86 1177.87 450.86 1177.87 451.26 1190.32 C451.3 1191.46 451.3 1191.46 451.35 1192.62 C451.39 1194.86 451.34 1197.08 451.26 1199.32 C451.24 1200.14 451.23 1200.97 451.21 1201.83 C450.56 1214.63 445.41 1226.49 437.26 1236.32 C436.6 1236.32 435.94 1236.32 435.26 1236.32 C434.86 1237.21 434.86 1237.21 434.45 1238.13 C433.26 1240.31 432.16 1241.73 430.26 1243.32 C429.6 1243.32 428.94 1243.32 428.26 1243.32 C427.93 1244.31 427.6 1245.3 427.26 1246.32 C421.79 1250.84 415.77 1253.58 409.26 1256.32 C408.01 1256.85 408.01 1256.85 406.73 1257.39 C391.3 1263.17 373.71 1260.93 358.83 1254.62 C353.69 1252.01 348.77 1248.9 344.26 1245.32 C344.26 1244.66 344.26 1244 344.26 1243.32 C343.3 1242.91 343.3 1242.91 342.32 1242.5 C340.26 1241.32 340.26 1241.32 339.26 1238.32 C338.6 1238.32 337.94 1238.32 337.26 1238.32 C335.42 1236.23 335.42 1236.23 333.32 1233.38 C332.63 1232.46 331.94 1231.55 331.23 1230.6 C329.57 1227.83 328.61 1225.64 327.64 1222.61 C327.38 1221.8 327.12 1221 326.85 1220.17 C326.65 1219.56 326.46 1218.95 326.26 1218.32 C325.7 1218.32 325.15 1218.33 324.58 1218.34 C318.72 1218.4 312.86 1218.45 307 1218.48 C304.83 1218.5 302.65 1218.52 300.47 1218.54 C272.28 1218.87 272.28 1218.87 259.26 1213.32 C259.26 1212.66 259.26 1212 259.26 1211.32 C257.61 1210.99 255.96 1210.66 254.26 1210.32 C254.26 1209.66 254.26 1209 254.26 1208.32 C253.69 1208.07 253.12 1207.83 252.54 1207.59 C249.79 1206.05 247.98 1204.29 245.82 1202 C245.08 1201.24 244.34 1200.48 243.58 1199.7 C236.27 1190.19 235.54 1178.92 235.69 1167.43 C235.69 1165.88 235.69 1164.33 235.69 1162.78 C235.69 1158.62 235.72 1154.46 235.75 1150.29 C235.78 1145.93 235.79 1141.56 235.79 1137.2 C235.81 1128.95 235.85 1120.7 235.9 1112.45 C235.97 1101.3 235.99 1090.14 236.02 1078.98 C236.07 1061.42 236.17 1043.87 236.26 1026.32 C208.87 1025.99 181.48 1025.66 153.26 1025.32 C153.29 1034.52 153.33 1043.73 153.37 1053.22 C153.38 1059.06 153.4 1064.89 153.41 1070.73 C153.42 1080 153.45 1089.26 153.49 1098.52 C153.52 1105.27 153.54 1112.02 153.54 1118.76 C153.55 1122.33 153.56 1125.9 153.58 1129.47 C153.6 1133.47 153.6 1137.46 153.6 1141.45 C153.62 1143.21 153.62 1143.21 153.63 1145.01 C153.6 1153.53 152.75 1161.37 146.76 1167.88 C146.17 1168.54 145.58 1169.2 144.98 1169.88 C143.26 1171.32 143.26 1171.32 140.26 1171.32 C140.26 1171.98 140.26 1172.64 140.26 1173.32 C133.36 1174.99 126.91 1176.44 120.26 1173.32 C113.69 1168.52 109.31 1164.03 107.66 1155.99 C106.9 1150.89 106.95 1145.78 106.94 1140.64 C106.93 1139.4 106.92 1138.16 106.91 1136.88 C106.89 1133.5 106.87 1130.13 106.86 1126.76 C106.84 1123.22 106.81 1119.69 106.79 1116.15 C106.74 1109.47 106.7 1102.79 106.67 1096.1 C106.63 1087.07 106.56 1078.03 106.5 1068.99 C106.41 1054.76 106.34 1040.54 106.26 1026.32 C79.86 1026.32 53.46 1026.32 26.26 1026.32 C26.26 1068.89 26.26 1111.46 26.26 1155.32 C30.88 1157.96 35.5 1160.6 40.26 1163.32 C41.25 1163.98 42.24 1164.64 43.26 1165.32 C43.26 1165.98 43.26 1166.64 43.26 1167.32 C44.16 1167.72 44.16 1167.72 45.07 1168.13 C47.26 1169.31 48.67 1170.41 50.26 1172.32 C50.26 1172.98 50.26 1173.64 50.26 1174.32 C51.25 1174.65 52.24 1174.98 53.26 1175.32 C53.26 1175.98 53.26 1176.64 53.26 1177.32 C53.92 1177.32 54.58 1177.32 55.26 1177.32 C57.89 1181.66 60.19 1186.11 62.39 1190.69 C62.88 1191.73 63.38 1192.77 63.89 1193.84 C66.8 1201.22 67.62 1208.3 67.57 1216.19 C67.57 1217.07 67.56 1217.95 67.56 1218.85 C67.45 1225.4 66.62 1231.17 64.26 1237.32 C63.96 1238.17 63.66 1239.03 63.35 1239.91 C61.33 1245.34 58.96 1250.81 55.26 1255.32 C54.6 1255.32 53.94 1255.32 53.26 1255.32 C52.95 1255.93 52.64 1256.55 52.32 1257.19 C51.64 1258.57 50.95 1259.94 50.26 1261.32 C49.6 1261.32 48.94 1261.32 48.26 1261.32 C48.26 1261.98 48.26 1262.64 48.26 1263.32 C46.18 1265.26 46.18 1265.26 43.45 1267.44 C42.55 1268.17 41.66 1268.89 40.74 1269.64 C38.26 1271.32 38.26 1271.32 35.26 1271.32 C35.26 1271.98 35.26 1272.64 35.26 1273.32 C33.55 1274.11 31.84 1274.9 30.14 1275.69 C29.18 1276.13 28.23 1276.57 27.25 1277.03 C19.57 1280.34 12.77 1280.66 4.52 1280.63 C2.33 1280.63 0.15 1280.65 -2.04 1280.68 C-3.45 1280.68 -4.86 1280.68 -6.27 1280.68 C-7.53 1280.68 -8.8 1280.68 -10.1 1280.69 C-14.32 1280.26 -16.95 1279.15 -20.74 1277.32 C-22.55 1276.58 -24.36 1275.85 -26.18 1275.13 C-27.04 1274.78 -27.91 1274.44 -28.8 1274.09 C-29.76 1273.7 -29.76 1273.7 -30.74 1273.32 C-30.74 1272.66 -30.74 1272 -30.74 1271.32 C-31.3 1271.22 -31.86 1271.13 -32.44 1271.03 C-35.31 1270.14 -37.14 1268.73 -39.49 1266.88 C-40.69 1265.95 -40.69 1265.95 -41.91 1265.01 C-42.82 1264.17 -42.82 1264.17 -43.74 1263.32 C-43.74 1262.66 -43.74 1262 -43.74 1261.32 C-44.4 1261.32 -45.06 1261.32 -45.74 1261.32 C-51.18 1254.99 -55.39 1247.93 -58.74 1240.32 C-59.07 1239.58 -59.41 1238.85 -59.75 1238.09 C-62.31 1230.93 -63.1 1224.01 -63.05 1216.44 C-63.05 1215.56 -63.04 1214.68 -63.04 1213.78 C-62.79 1200.23 -57.64 1188.81 -50.74 1177.32 C-50.08 1177.32 -49.42 1177.32 -48.74 1177.32 C-48.53 1176.78 -48.33 1176.24 -48.11 1175.69 C-46.21 1172.4 -43.69 1169.72 -40.74 1167.32 C-40.08 1167.32 -39.42 1167.32 -38.74 1167.32 C-38.74 1166.66 -38.74 1166 -38.74 1165.32 C-36.68 1163.89 -34.64 1162.59 -32.49 1161.32 C-31.9 1160.96 -31.32 1160.6 -30.71 1160.24 C-27.77 1158.46 -24.82 1156.85 -21.74 1155.32 C-21.74 1112.75 -21.74 1070.18 -21.74 1026.32 C-48.14 1026.32 -74.54 1026.32 -101.74 1026.32 C-101.79 1035.38 -101.84 1044.44 -101.89 1053.78 C-101.92 1059.53 -101.96 1065.27 -102 1071.02 C-102.06 1080.14 -102.12 1089.26 -102.16 1098.38 C-102.19 1105.02 -102.23 1111.66 -102.28 1118.3 C-102.31 1121.82 -102.33 1125.33 -102.34 1128.84 C-102.36 1132.77 -102.39 1136.71 -102.42 1140.64 C-102.42 1142.37 -102.42 1142.37 -102.43 1144.14 C-102.6 1161 -102.6 1161 -108.68 1167.25 C-109.71 1168.35 -109.71 1168.35 -110.77 1169.47 C-115.5 1173.91 -120.42 1174.8 -126.74 1175.32 C-129.92 1174.94 -132.65 1174.23 -135.74 1173.32 C-135.74 1172.66 -135.74 1172 -135.74 1171.32 C-136.34 1171.21 -136.93 1171.11 -137.55 1171 C-140.11 1170.2 -141.06 1169.33 -142.8 1167.32 C-143.29 1166.78 -143.77 1166.24 -144.28 1165.69 C-148.99 1158.05 -149.16 1150.21 -149.08 1141.45 C-149.08 1140.19 -149.08 1138.93 -149.08 1137.64 C-149.08 1134.21 -149.07 1130.78 -149.04 1127.35 C-149.03 1123.76 -149.02 1120.17 -149.02 1116.58 C-149.01 1109.79 -148.99 1103 -148.96 1096.21 C-148.92 1087.03 -148.9 1077.85 -148.88 1068.67 C-148.85 1054.22 -148.79 1039.77 -148.74 1025.32 C-176.13 1025.65 -203.52 1025.98 -231.74 1026.32 C-231.69 1037.53 -231.65 1048.75 -231.6 1060.31 C-231.58 1067.42 -231.56 1074.53 -231.54 1081.64 C-231.52 1092.92 -231.49 1104.2 -231.44 1115.48 C-231.4 1123.7 -231.37 1131.92 -231.36 1140.14 C-231.36 1144.49 -231.35 1148.83 -231.32 1153.18 C-231.29 1157.28 -231.28 1161.38 -231.29 1165.48 C-231.29 1166.98 -231.28 1168.48 -231.26 1169.98 C-231.13 1183.85 -234.37 1194.78 -244.24 1204.88 C-251.15 1211.32 -251.15 1211.32 -254.74 1211.32 C-254.74 1211.98 -254.74 1212.64 -254.74 1213.32 C-269.06 1219.38 -283.72 1218.56 -298.99 1218.44 C-301.2 1218.43 -303.41 1218.42 -305.62 1218.41 C-310.99 1218.39 -316.37 1218.36 -321.74 1218.32 C-321.87 1219.08 -322.01 1219.85 -322.14 1220.64 C-322.88 1223.92 -324.27 1226.08 -326.11 1228.88 C-326.72 1229.81 -327.33 1230.74 -327.95 1231.69 C-331.32 1236.63 -331.32 1236.63 -332.74 1238.32 C-333.4 1238.32 -334.06 1238.32 -334.74 1238.32 C-335.14 1239.27 -335.14 1239.27 -335.55 1240.25 C-336.74 1242.32 -336.74 1242.32 -339.74 1243.32 C-339.74 1243.98 -339.74 1244.64 -339.74 1245.32 C-354.2 1256.93 -370.38 1261.63 -388.74 1260.32 C-404.67 1257.83 -420.42 1251.18 -430.74 1238.32 C-430.74 1237.66 -430.74 1237 -430.74 1236.32 C-431.4 1236.32 -432.06 1236.32 -432.74 1236.32 C-441.54 1225.71 -446.46 1213.1 -446.74 1199.32 C-446.77 1198.56 -446.79 1197.8 -446.82 1197.02 C-446.87 1194.78 -446.82 1192.56 -446.74 1190.32 C-446.72 1189.48 -446.71 1188.63 -446.69 1187.77 C-446.13 1176.62 -441.47 1166.74 -435.74 1157.32 C-435.08 1157.32 -434.42 1157.32 -433.74 1157.32 C-433.47 1156.74 -433.21 1156.16 -432.94 1155.56 C-429.4 1148.92 -423.24 1143.05 -416.74 1139.32 C-415.75 1139.32 -414.76 1139.32 -413.74 1139.32 C-413.74 1138.66 -413.74 1138 -413.74 1137.32 C-397.15 1129.37 -379.54 1126.72 -361.74 1132.32 C-352.91 1135.75 -343.41 1140.46 -336.74 1147.32 C-336.74 1147.98 -336.74 1148.64 -336.74 1149.32 C-336.08 1149.32 -335.42 1149.32 -334.74 1149.32 C-321.74 1164.67 -321.74 1164.67 -321.74 1172.32 C-306.56 1172.32 -291.38 1172.32 -275.74 1172.32 C-276.23 1100.05 -276.23 1100.05 -276.74 1026.32 C-286.97 1025.99 -297.2 1025.66 -307.74 1025.32 C-335.94 1018.81 -356.32 1006.47 -372.18 982.1 C-383.74 962.65 -383.02 941.72 -383.74 919.32 C-431.92 918.99 -480.1 918.66 -529.74 918.32 C-529.74 933.5 -529.74 948.68 -529.74 964.32 C-528.09 964.65 -526.44 964.98 -524.74 965.32 C-523.06 965.95 -521.39 966.61 -519.74 967.32 C-519.74 967.98 -519.74 968.64 -519.74 969.32 C-519.08 969.52 -518.42 969.73 -517.74 969.94 C-513.67 971.81 -510.05 974.29 -506.74 977.32 C-506.74 977.98 -506.74 978.64 -506.74 979.32 C-506.08 979.32 -505.42 979.32 -504.74 979.32 C-493.65 991.81 -485.64 1008.83 -486.47 1025.84 C-488.55 1044.74 -495.12 1060.98 -509.61 1073.94 C-512.74 1076.32 -512.74 1076.32 -514.74 1076.32 C-514.74 1076.98 -514.74 1077.64 -514.74 1078.32 C-517.28 1079.61 -519.82 1080.9 -522.36 1082.19 C-523.43 1082.74 -523.43 1082.74 -524.53 1083.3 C-535.02 1088.59 -545.08 1089.73 -556.74 1089.32 C-557.57 1089.3 -558.4 1089.28 -559.25 1089.26 C-572.05 1088.61 -583.91 1083.47 -593.74 1075.32 C-593.74 1074.66 -593.74 1074 -593.74 1073.32 C-594.64 1072.91 -594.64 1072.91 -595.55 1072.5 C-597.74 1071.32 -599.15 1070.22 -600.74 1068.32 C-600.74 1067.66 -600.74 1067 -600.74 1066.32 C-601.73 1065.99 -602.72 1065.66 -603.74 1065.32 C-614.9 1051.51 -618.99 1034.85 -617.74 1017.32 C-615.69 1004.19 -611.03 992.76 -602.74 982.32 C-602.08 982.32 -601.42 982.32 -600.74 982.32 C-600.34 981.36 -600.34 981.36 -599.93 980.38 C-598.74 978.32 -598.74 978.32 -595.74 977.32 C-595.74 976.66 -595.74 976 -595.74 975.32 C-593.65 973.48 -593.65 973.48 -590.8 971.38 C-589.89 970.69 -588.97 970 -588.03 969.29 C-585.25 967.62 -583.07 966.66 -580.03 965.69 C-579.23 965.43 -578.42 965.17 -577.59 964.9 C-576.68 964.61 -576.68 964.61 -575.74 964.32 C-575.75 963.76 -575.75 963.2 -575.76 962.63 C-575.83 956.77 -575.87 950.92 -575.9 945.06 C-575.92 942.88 -575.94 940.7 -575.97 938.53 C-576.34 906.76 -576.34 906.76 -567.74 892.32 C-567.08 892.32 -566.42 892.32 -565.74 892.32 C-565.5 891.75 -565.26 891.18 -565.01 890.59 C-563.48 887.85 -561.71 886.04 -559.43 883.88 C-558.67 883.14 -557.91 882.4 -557.13 881.63 C-547.61 874.33 -536.35 873.6 -524.85 873.75 C-523.3 873.75 -521.75 873.75 -520.21 873.75 C-516.04 873.74 -511.88 873.77 -507.72 873.81 C-503.35 873.84 -498.99 873.84 -494.62 873.85 C-486.37 873.86 -478.13 873.91 -469.88 873.96 C-458.72 874.02 -447.56 874.05 -436.4 874.08 C-418.85 874.12 -401.29 874.22 -383.74 874.32 C-383.41 846.93 -383.08 819.54 -382.74 791.32 C-391.95 791.35 -401.16 791.39 -410.64 791.42 C-416.48 791.44 -422.32 791.45 -428.16 791.46 C-437.42 791.48 -446.68 791.5 -455.95 791.54 C-462.69 791.57 -469.44 791.59 -476.19 791.6 C-479.76 791.6 -483.33 791.61 -486.9 791.63 C-490.89 791.66 -494.88 791.66 -498.88 791.66 C-500.64 791.67 -500.64 791.67 -502.43 791.69 C-510.95 791.66 -518.8 790.81 -525.3 784.82 C-525.96 784.23 -526.63 783.64 -527.31 783.03 C-528.74 781.32 -528.74 781.32 -528.74 778.32 C-529.4 778.32 -530.06 778.32 -530.74 778.32 C-532.42 771.42 -533.86 764.97 -530.74 758.32 C-525.95 751.75 -521.45 747.36 -513.42 745.71 C-508.32 744.96 -503.21 745.01 -498.06 745 C-496.82 744.99 -495.58 744.98 -494.3 744.97 C-490.93 744.94 -487.56 744.92 -484.18 744.91 C-480.65 744.9 -477.11 744.87 -473.58 744.84 C-466.89 744.8 -460.21 744.76 -453.53 744.73 C-444.49 744.68 -435.45 744.62 -426.41 744.56 C-412.19 744.47 -397.96 744.39 -383.74 744.32 C-383.74 717.92 -383.74 691.52 -383.74 664.32 C-426.31 664.32 -468.88 664.32 -512.74 664.32 C-515.21 668.77 -515.21 668.77 -517.74 673.32 C-518.62 674.85 -519.51 676.37 -520.43 677.88 C-520.82 678.54 -521.22 679.2 -521.63 679.88 C-521.99 680.36 -522.36 680.83 -522.74 681.32 C-523.4 681.32 -524.06 681.32 -524.74 681.32 C-525.14 682.21 -525.14 682.21 -525.55 683.13 C-526.74 685.31 -527.84 686.73 -529.74 688.32 C-530.4 688.32 -531.06 688.32 -531.74 688.32 C-532.07 689.31 -532.4 690.3 -532.74 691.32 C-533.4 691.32 -534.06 691.32 -534.74 691.32 C-534.74 691.98 -534.74 692.64 -534.74 693.32 C-539.09 695.94 -543.53 698.25 -548.11 700.44 C-549.15 700.94 -550.19 701.44 -551.26 701.95 C-558.65 704.85 -565.72 705.68 -573.61 705.63 C-574.49 705.62 -575.37 705.62 -576.27 705.62 C-582.83 705.5 -588.59 704.67 -594.74 702.32 C-595.57 702.04 -596.41 701.76 -597.27 701.47 C-603.86 699.12 -609.18 695.52 -614.74 691.32 C-615.5 690.79 -616.25 690.27 -617.03 689.73 C-617.88 689.03 -617.88 689.03 -618.74 688.32 C-618.74 687.66 -618.74 687 -618.74 686.32 C-619.4 686.32 -620.06 686.32 -620.74 686.32 C-622.69 684.23 -622.69 684.23 -624.86 681.5 C-625.95 680.16 -625.95 680.16 -627.06 678.8 C-628.74 676.32 -628.74 676.32 -628.74 673.32 C-629.4 673.32 -630.06 673.32 -630.74 673.32 C-631.54 671.61 -632.33 669.9 -633.11 668.19 C-633.56 667.24 -634 666.29 -634.45 665.31 C-637.76 657.62 -638.08 650.83 -638.06 642.58 C-638.05 640.39 -638.08 638.2 -638.1 636.01 C-638.1 634.6 -638.1 633.2 -638.1 631.79 C-638.11 630.52 -638.11 629.26 -638.11 627.95 C-637.68 623.74 -636.57 621.11 -634.74 617.32 C-634 615.51 -633.27 613.69 -632.55 611.88 C-632.04 610.58 -632.04 610.58 -631.51 609.26 C-631.26 608.62 -631 607.98 -630.74 607.32 C-630.08 607.32 -629.42 607.32 -628.74 607.32 C-628.6 606.47 -628.6 606.47 -628.45 605.61 C-627.56 602.75 -626.15 600.92 -624.3 598.57 C-623.38 597.37 -623.38 597.37 -622.43 596.14 C-621.87 595.54 -621.32 594.94 -620.74 594.32 C-620.08 594.32 -619.42 594.32 -618.74 594.32 C-618.74 593.66 -618.74 593 -618.74 592.32 C-612.42 586.87 -605.35 582.67 -597.74 579.32 C-597.01 578.98 -596.27 578.65 -595.51 578.31 C-588.36 575.75 -581.43 574.95 -573.86 575 C-572.99 575.01 -572.11 575.01 -571.2 575.02 C-557.65 575.26 -546.24 580.42 -534.74 587.32 C-534.74 587.98 -534.74 588.64 -534.74 589.32 C-534.2 589.52 -533.67 589.73 -533.11 589.94 C-529.82 591.85 -527.15 594.36 -524.74 597.32 C-524.74 597.98 -524.74 598.64 -524.74 599.32 C-524.08 599.32 -523.42 599.32 -522.74 599.32 C-521.31 601.37 -520.01 603.41 -518.74 605.57 C-518.38 606.15 -518.03 606.74 -517.66 607.34 C-515.89 610.29 -514.28 613.24 -512.74 616.32 C-470.17 616.32 -427.6 616.32 -383.74 616.32 C-383.74 589.92 -383.74 563.52 -383.74 536.32 C-397.34 536.24 -397.34 536.24 -411.2 536.17 C-416.95 536.13 -422.7 536.1 -428.45 536.06 C-437.56 536 -446.68 535.94 -455.8 535.89 C-462.44 535.86 -469.08 535.82 -475.73 535.77 C-479.24 535.75 -482.75 535.73 -486.27 535.71 C-490.2 535.7 -494.13 535.67 -498.06 535.63 C-499.22 535.63 -500.37 535.63 -501.56 535.63 C-518.42 535.45 -518.42 535.45 -524.68 529.38 C-525.41 528.69 -526.14 528 -526.89 527.29 C-531.33 522.55 -532.22 517.63 -532.74 511.32 C-532.37 508.14 -531.65 505.4 -530.74 502.32 C-530.08 502.32 -529.42 502.32 -528.74 502.32 C-528.64 501.72 -528.53 501.12 -528.43 500.51 C-527.62 497.95 -526.75 497 -524.74 495.25 C-524.2 494.77 -523.67 494.28 -523.11 493.78 C-515.47 489.07 -507.64 488.89 -498.88 488.98 C-497.62 488.97 -496.36 488.97 -495.06 488.97 C-491.63 488.97 -488.21 488.99 -484.78 489.01 C-481.19 489.03 -477.6 489.03 -474 489.04 C-467.22 489.04 -460.43 489.07 -453.64 489.1 C-444.46 489.14 -435.27 489.16 -426.09 489.17 C-411.64 489.2 -397.19 489.26 -382.74 489.32 C-383.07 461.93 -383.4 434.54 -383.74 406.32 C-394.92 406.37 -406.11 406.43 -417.63 406.49 C-424.72 406.52 -431.82 406.54 -438.91 406.56 C-450.17 406.59 -461.43 406.62 -472.68 406.69 C-480.88 406.74 -489.08 406.78 -497.28 406.79 C-501.62 406.79 -505.95 406.81 -510.29 406.84 C-514.38 406.88 -518.47 406.89 -522.56 406.88 C-524.06 406.88 -525.55 406.89 -527.04 406.91 C-538.75 407.06 -550.28 405.43 -559.15 397.06 C-559.61 396.59 -560.08 396.12 -560.55 395.63 C-561.07 395.14 -561.58 394.66 -562.11 394.16 C-563.38 392.93 -564.57 391.63 -565.74 390.32 C-565.74 389.66 -565.74 389 -565.74 388.32 C-566.4 388.32 -567.06 388.32 -567.74 388.32 C-577.88 374.21 -575.99 355.46 -575.86 339.07 C-575.85 336.86 -575.85 334.65 -575.84 332.44 C-575.82 327.06 -575.78 321.69 -575.74 316.32 C-576.51 316.18 -577.28 316.05 -578.07 315.91 C-581.35 315.18 -583.5 313.79 -586.3 311.94 C-587.23 311.33 -588.16 310.73 -589.12 310.1 C-594.05 306.74 -594.05 306.74 -595.74 305.32 C-595.74 304.66 -595.74 304 -595.74 303.32 C-596.38 303.05 -597.02 302.78 -597.68 302.5 C-599.74 301.32 -599.74 301.32 -600.74 298.32 C-601.4 298.32 -602.06 298.32 -602.74 298.32 C-614.36 283.85 -619.05 267.68 -617.74 249.32 C-615.25 233.38 -608.6 217.64 -595.74 207.32 C-595.08 207.32 -594.42 207.32 -593.74 207.32 C-593.41 206.33 -593.08 205.34 -592.74 204.32 C-582.58 195.99 -569.78 191.58 -556.74 191.32 C-555.98 191.29 -555.23 191.26 -554.45 191.23 C-552.2 191.19 -549.98 191.24 -547.74 191.32 C-546.48 191.34 -546.48 191.34 -545.19 191.37 C-534.05 191.93 -524.17 196.59 -514.74 202.32 C-514.74 202.98 -514.74 203.64 -514.74 204.32 C-514.16 204.58 -513.58 204.85 -512.98 205.12 C-501.13 211.44 -494.09 224.07 -489.74 236.32 C-484.48 254.73 -486.49 271.89 -495.61 288.68 C-498.19 293.2 -501 297.67 -504.74 301.32 C-505.4 301.32 -506.06 301.32 -506.74 301.32 C-506.74 301.98 -506.74 302.64 -506.74 303.32 C-522.09 316.32 -522.09 316.32 -529.74 316.32 C-529.74 331.5 -529.74 346.68 -529.74 362.32 C-481.56 361.99 -433.38 361.66 -383.74 361.32 C-383.41 351.09 -383.08 340.86 -382.74 330.32 C-376.23 302.12 -363.9 281.74 -339.53 265.87 C-320.07 254.32 -299.15 255.04 -276.74 254.32 C-276.41 206.14 -276.08 157.96 -275.74 108.32 C-290.92 108.32 -306.1 108.32 -321.74 108.32 C-322.07 109.97 -322.4 111.62 -322.74 113.32 C-323.93 115.53 -325.21 117.69 -326.55 119.82 C-327.24 120.92 -327.93 122.02 -328.63 123.16 C-330.55 126.03 -332.45 128.74 -334.74 131.32 C-335.4 131.32 -336.06 131.32 -336.74 131.32 C-336.74 131.98 -336.74 132.64 -336.74 133.32 C-349.24 144.41 -366.25 152.42 -383.26 151.59 C-402.17 149.5 -418.4 142.93 -431.36 128.44 C-433.74 125.32 -433.74 125.32 -433.74 123.32 C-434.4 123.32 -435.06 123.32 -435.74 123.32 C-446.34 102.76 -446.34 102.76 -446.74 90.32 C-446.77 89.55 -446.8 88.79 -446.83 88.01 C-446.87 85.77 -446.82 83.55 -446.74 81.32 C-446.72 80.49 -446.71 79.66 -446.69 78.8 C-446.04 66 -440.89 54.14 -432.74 44.32 C-432.08 44.32 -431.42 44.32 -430.74 44.32 C-430.5 43.74 -430.25 43.16 -430 42.56 C-424.18 32.17 -410.45 26.05 -399.74 22.32 C-383.87 17.9 -366.4 19.84 -351.74 27.32 C-347.6 29.79 -343.52 32.32 -339.74 35.32 C-339.74 35.98 -339.74 36.64 -339.74 37.32 C-339.1 37.58 -338.46 37.85 -337.8 38.13 C-335.74 39.32 -335.74 39.32 -334.74 42.32 C-334.08 42.32 -333.42 42.32 -332.74 42.32 C-330.9 44.51 -330.9 44.51 -328.8 47.44 C-327.77 48.87 -327.77 48.87 -326.71 50.32 C-321.74 57.87 -321.74 57.87 -321.74 62.32 C-321.18 62.31 -320.63 62.3 -320.06 62.3 C-314.2 62.23 -308.34 62.18 -302.48 62.15 C-300.31 62.14 -298.13 62.12 -295.95 62.09 C-264.18 61.72 -264.18 61.72 -249.74 70.32 C-249.74 70.98 -249.74 71.64 -249.74 72.32 C-249.17 72.56 -248.6 72.8 -248.02 73.05 C-245.27 74.58 -243.46 76.34 -241.3 78.63 C-240.56 79.39 -239.82 80.15 -239.06 80.93 C-231.75 90.44 -231.02 101.71 -231.17 113.2 C-231.17 114.75 -231.17 116.3 -231.17 117.85 C-231.17 122.01 -231.2 126.17 -231.23 130.34 C-231.26 134.7 -231.27 139.07 -231.27 143.43 C-231.29 151.68 -231.33 159.93 -231.38 168.18 C-231.45 179.34 -231.47 190.49 -231.5 201.65 C-231.55 219.21 -231.65 236.76 -231.74 254.32 C-204.35 254.65 -176.96 254.98 -148.74 255.32 C-148.77 246.11 -148.81 236.9 -148.85 227.41 C-148.86 221.58 -148.88 215.74 -148.89 209.9 C-148.9 200.64 -148.93 191.37 -148.97 182.11 C-149 175.36 -149.02 168.62 -149.02 161.87 C-149.03 158.3 -149.04 154.73 -149.06 151.16 C-149.08 147.16 -149.08 143.17 -149.08 139.18 C-149.1 137.42 -149.1 137.42 -149.11 135.62 C-149.08 127.1 -148.23 119.26 -142.24 112.75 C-141.65 112.09 -141.06 111.43 -140.46 110.75 C-138.74 109.32 -138.74 109.32 -135.74 109.32 C-135.74 108.66 -135.74 108 -135.74 107.32 C-128.84 105.64 -122.39 104.2 -115.74 107.32 C-109.17 112.11 -104.79 116.6 -103.14 124.64 C-102.38 129.74 -102.43 134.85 -102.42 140 C-102.41 141.86 -102.41 141.86 -102.39 143.75 C-102.37 147.13 -102.35 150.5 -102.34 153.87 C-102.32 157.41 -102.29 160.94 -102.27 164.48 C-102.22 171.16 -102.18 177.84 -102.15 184.53 C-102.11 193.57 -102.04 202.61 -101.98 211.64 C-101.89 225.87 -101.82 240.09 -101.74 254.32 C-75.34 254.32 -48.94 254.32 -21.74 254.32 C-21.74 211.75 -21.74 169.18 -21.74 125.32 C-26.19 122.84 -26.19 122.84 -30.74 120.32 C-32.27 119.44 -33.79 118.55 -35.3 117.63 C-35.96 117.23 -36.63 116.84 -37.31 116.43 C-37.78 116.06 -38.25 115.69 -38.74 115.32 C-38.74 114.66 -38.74 114 -38.74 113.32 C-39.64 112.91 -39.64 112.91 -40.55 112.5 C-42.74 111.32 -44.15 110.22 -45.74 108.32 C-45.74 107.66 -45.74 107 -45.74 106.32 C-46.73 105.99 -47.72 105.66 -48.74 105.32 C-48.74 104.66 -48.74 104 -48.74 103.32 C-49.4 103.32 -50.06 103.32 -50.74 103.32 C-53.37 98.97 -55.67 94.52 -57.86 89.94 C-58.36 88.9 -58.86 87.86 -59.37 86.79 C-62.28 79.41 -63.1 72.33 -63.05 64.44 C-63.05 63.56 -63.04 62.69 -63.04 61.78 C-62.93 55.23 -62.09 49.47 -59.74 43.32 C-59.46 42.48 -59.18 41.65 -58.9 40.79 C-56.54 34.2 -52.94 28.87 -48.74 23.32 C-48.22 22.56 -47.69 21.8 -47.15 21.03 C-46.45 20.18 -46.45 20.18 -45.74 19.32 C-45.08 19.32 -44.42 19.32 -43.74 19.32 C-43.74 18.66 -43.74 18 -43.74 17.32 C-41.66 15.37 -41.66 15.37 -38.93 13.19 C-37.59 12.1 -37.59 12.1 -36.22 11 C-33.74 9.32 -33.74 9.32 -30.74 9.32 C-30.74 8.66 -30.74 8 -30.74 7.32 C-29.03 6.52 -27.32 5.73 -25.61 4.94 C-24.66 4.5 -23.71 4.06 -22.73 3.6 C-15.05 0.29 -8.25 -0.02 0 0 Z M-13.11 50.07 C-17.08 55.56 -18.67 61.6 -17.74 68.32 C-16.37 74.85 -13.22 78.61 -7.74 82.32 C-2.78 85.34 2.64 85.04 8.26 84.32 C12.99 82.36 17.73 79.15 20.21 74.55 C22.92 67.48 23.33 61.29 20.37 54.21 C17.77 49.77 13.91 47.09 9.32 44.94 C0.57 43.15 -5.94 44.78 -13.11 50.07 Z M-394.74 69.32 C-394.74 69.98 -394.74 70.64 -394.74 71.32 C-395.4 71.32 -396.06 71.32 -396.74 71.32 C-397.38 72.43 -398.02 73.54 -398.68 74.69 C-399.04 75.32 -399.4 75.94 -399.77 76.59 C-402.46 81.37 -402.14 85.91 -401.74 91.32 C-399.96 97.09 -395.61 100.92 -390.74 104.32 C-385 106.32 -378.63 105.91 -372.93 104.13 C-367.34 100.95 -364.22 97.48 -362.25 91.42 C-360.73 85.12 -361.53 80.17 -364.35 74.43 C-367.22 70.06 -370.94 67.08 -376.01 65.69 C-382.72 64.77 -389.19 65.11 -394.74 69.32 Z M372.06 70.45 C367.9 74.75 366.09 79.9 365.76 85.82 C366.07 91.52 367.79 96.91 371.94 100.96 C377.98 105.47 383.86 105.93 391.26 105.32 C396.77 103.66 400.83 100.92 404.26 96.32 C406.82 91.06 406.82 86.06 406.26 80.32 C404.91 76.88 403.3 74.38 401.26 71.32 C400.6 71.32 399.94 71.32 399.26 71.32 C399.26 70.66 399.26 70 399.26 69.32 C391.32 62.92 379.59 64.33 372.06 70.45 Z M-566.74 241.32 C-566.74 241.98 -566.74 242.64 -566.74 243.32 C-567.4 243.32 -568.06 243.32 -568.74 243.32 C-572.92 248.5 -572.79 254.51 -572.68 260.88 C-571.18 266.39 -568.44 270.54 -563.62 273.71 C-556.65 277.13 -550.8 277.23 -543.55 274.75 C-538.75 272.68 -535.97 270.04 -533.74 265.32 C-531.89 259.47 -532.12 253.39 -533.86 247.57 C-537.08 241.99 -540.53 238.32 -546.74 236.32 C-554.86 235.41 -559.97 236.8 -566.74 241.32 Z M539.68 245.28 C536.4 249.99 536.79 255.78 537.26 261.32 C539.05 267.07 541.64 271.38 547.08 274.29 C553.54 277.01 559.34 277.28 565.89 274.82 C570.77 272.41 573.85 269.2 576.26 264.32 C577.83 258.58 578.05 251.85 575.32 246.47 C572.36 241.87 569.13 239.71 564.26 237.32 C563.6 236.99 562.94 236.66 562.26 236.32 C551.87 235.43 546.51 237.45 539.68 245.28 Z M-319.74 306.32 C-319.74 306.98 -319.74 307.64 -319.74 308.32 C-320.28 308.52 -320.81 308.73 -321.36 308.94 C-324.66 310.85 -327.33 313.36 -329.74 316.32 C-329.74 316.98 -329.74 317.64 -329.74 318.32 C-330.4 318.32 -331.06 318.32 -331.74 318.32 C-340.03 330.31 -338.16 345.99 -338.12 359.84 C-338.12 362.35 -338.13 364.87 -338.14 367.39 C-338.15 372.85 -338.15 378.32 -338.14 383.78 C-338.13 391.91 -338.13 400.04 -338.14 408.16 C-338.16 422.68 -338.16 437.19 -338.15 451.71 C-338.14 464.41 -338.14 477.12 -338.14 489.82 C-338.14 490.66 -338.14 491.5 -338.14 492.37 C-338.14 495.8 -338.14 499.22 -338.15 502.64 C-338.15 534.74 -338.15 566.83 -338.13 598.93 C-338.12 627.44 -338.12 655.94 -338.13 684.45 C-338.15 716.49 -338.15 748.53 -338.14 780.56 C-338.14 783.98 -338.14 787.4 -338.14 790.81 C-338.14 791.65 -338.14 792.5 -338.14 793.36 C-338.14 806.06 -338.14 818.75 -338.15 831.44 C-338.16 845.88 -338.16 860.32 -338.14 874.75 C-338.13 882.83 -338.13 890.9 -338.14 898.98 C-338.15 905.01 -338.14 911.04 -338.13 917.08 C-338.12 919.52 -338.12 921.95 -338.13 924.39 C-338.8 944.24 -338.8 944.24 -331.74 962.32 C-331.08 962.32 -330.42 962.32 -329.74 962.32 C-329.53 962.85 -329.33 963.39 -329.11 963.94 C-327.21 967.24 -324.69 969.91 -321.74 972.32 C-321.08 972.32 -320.42 972.32 -319.74 972.32 C-319.74 972.98 -319.74 973.64 -319.74 974.32 C-307.74 982.61 -292.08 980.73 -278.22 980.68 C-275.71 980.69 -273.19 980.69 -270.67 980.69 C-265.21 980.7 -259.75 980.7 -254.28 980.69 C-246.16 980.67 -238.03 980.67 -229.91 980.68 C-216.24 980.68 -202.57 980.68 -188.9 980.66 C-175.37 980.65 -161.83 980.64 -148.3 980.64 C-147.45 980.64 -146.61 980.64 -145.74 980.64 C-142.32 980.64 -138.9 980.64 -135.48 980.64 C-104.33 980.64 -73.18 980.62 -42.03 980.6 C-12.62 980.57 16.79 980.56 46.2 980.56 C47.1 980.56 48.01 980.56 48.94 980.56 C52.6 980.56 56.25 980.55 59.91 980.55 C61.73 980.55 63.55 980.55 65.37 980.55 C67.19 980.55 69 980.55 70.82 980.55 C99.74 980.55 128.65 980.54 157.57 980.53 C166.04 980.52 174.5 980.52 182.97 980.52 C200.77 980.51 218.57 980.5 236.38 980.49 C243.74 980.48 251.1 980.48 258.47 980.48 C265.2 980.47 271.94 980.47 278.67 980.46 C281.11 980.46 283.55 980.46 285.99 980.46 C289.3 980.46 292.61 980.45 295.92 980.45 C296.88 980.45 297.83 980.45 298.82 980.45 C305.99 980.43 312.47 979.8 319.26 977.32 C319.26 976.66 319.26 976 319.26 975.32 C320.91 974.99 322.56 974.66 324.26 974.32 C324.26 973.66 324.26 973 324.26 972.32 C324.8 972.11 325.33 971.9 325.89 971.69 C329.18 969.78 331.85 967.27 334.26 964.32 C334.26 963.66 334.26 963 334.26 962.32 C334.92 962.32 335.58 962.32 336.26 962.32 C336.59 960.67 336.92 959.02 337.26 957.32 C337.92 957.32 338.58 957.32 339.26 957.32 C342.1 949.56 342.41 942.14 342.39 933.98 C342.39 932.95 342.39 931.91 342.39 930.85 C342.39 927.38 342.39 923.91 342.39 920.44 C342.39 917.93 342.39 915.42 342.39 912.91 C342.4 907.45 342.4 901.99 342.39 896.53 C342.39 888.41 342.39 880.29 342.39 872.17 C342.4 857.67 342.4 843.17 342.4 828.67 C342.39 815.98 342.39 803.29 342.39 790.6 C342.39 789.76 342.39 788.91 342.39 788.05 C342.39 784.63 342.39 781.22 342.4 777.8 C342.4 745.75 342.4 713.71 342.39 681.66 C342.39 653.18 342.39 624.7 342.39 596.22 C342.4 564.24 342.4 532.25 342.39 500.26 C342.39 496.85 342.39 493.44 342.39 490.03 C342.39 489.19 342.39 488.35 342.39 487.49 C342.39 474.81 342.39 462.12 342.4 449.44 C342.4 435.02 342.4 420.6 342.39 406.18 C342.39 398.11 342.39 390.04 342.39 381.96 C342.4 375.94 342.39 369.92 342.39 363.9 C342.39 361.46 342.39 359.02 342.39 356.58 C342.39 353.27 342.39 349.96 342.39 346.65 C342.39 345.7 342.39 344.74 342.39 343.76 C342.37 336.58 341.75 330.11 339.26 323.32 C338.6 323.32 337.94 323.32 337.26 323.32 C336.93 321.67 336.6 320.02 336.26 318.32 C335.6 318.32 334.94 318.32 334.26 318.32 C334.05 317.78 333.85 317.24 333.64 316.69 C331.73 313.4 329.21 310.72 326.26 308.32 C325.6 308.32 324.94 308.32 324.26 308.32 C324.26 307.66 324.26 307 324.26 306.32 C312.26 298.03 296.59 299.89 282.74 299.93 C280.22 299.93 277.7 299.93 275.19 299.92 C269.72 299.91 264.26 299.91 258.79 299.92 C250.67 299.93 242.54 299.92 234.41 299.91 C219.9 299.9 205.38 299.9 190.87 299.91 C178.16 299.92 165.46 299.92 152.76 299.91 C151.91 299.91 151.07 299.91 150.2 299.91 C146.78 299.91 143.36 299.91 139.94 299.91 C107.84 299.9 75.74 299.91 43.65 299.93 C15.14 299.94 -13.37 299.94 -41.87 299.92 C-73.91 299.91 -105.95 299.9 -137.99 299.91 C-141.41 299.91 -144.82 299.91 -148.24 299.91 C-149.5 299.91 -149.5 299.91 -150.79 299.91 C-163.48 299.92 -176.17 299.91 -188.87 299.91 C-203.3 299.9 -217.74 299.9 -232.18 299.92 C-240.25 299.93 -248.33 299.93 -256.4 299.91 C-262.44 299.91 -268.47 299.92 -274.5 299.93 C-276.94 299.93 -279.38 299.93 -281.82 299.92 C-301.66 299.26 -301.66 299.26 -319.74 306.32 Z M-590.55 628.5 C-593.72 633.35 -594.59 638.61 -593.74 644.32 C-592.13 649.34 -590.11 654.16 -585.74 657.32 C-579.08 660.73 -572.78 661.45 -565.61 659.25 C-560.45 657.12 -557.45 653.11 -554.6 648.45 C-552.55 643.37 -552.67 636.9 -554.76 631.86 C-558.65 625.53 -562.53 622.22 -569.74 620.32 C-578.27 619.08 -585.29 621.67 -590.55 628.5 Z M561.49 628.5 C557.62 634.23 557.39 639.5 558.26 646.32 C560.22 651.05 563.43 655.79 568.02 658.26 C575.09 660.98 581.28 661.38 588.37 658.43 C592.81 655.82 595.49 651.97 597.64 647.38 C599.24 639.53 598.19 634.21 594.26 627.32 C591.19 623.15 587.17 621.55 582.26 620.32 C573.6 619.07 566.91 621.73 561.49 628.5 Z M-569.24 1012 C-572.91 1017.47 -572.84 1022.56 -572.61 1028.94 C-571.33 1033.89 -569.13 1037.61 -564.92 1040.61 C-563.24 1041.58 -561.49 1042.46 -559.74 1043.32 C-559.08 1043.65 -558.42 1043.98 -557.74 1044.32 C-551.54 1044.84 -545.94 1045.1 -540.74 1041.32 C-535.25 1035.94 -532.64 1032.26 -532.49 1024.5 C-532.57 1018.44 -534.13 1014.29 -537.99 1009.57 C-543.05 1005.43 -547.93 1003.7 -554.41 1003.98 C-560.55 1004.87 -565.24 1007.23 -569.24 1012 Z M540.26 1011.32 C536.79 1018.65 536.04 1025.23 538.39 1033.07 C541.6 1038.64 545.05 1042.31 551.26 1044.32 C557.48 1045.01 562.98 1044.96 568.26 1041.32 C570.97 1038.94 570.97 1038.94 573.26 1036.32 C573.84 1035.74 574.42 1035.16 575.01 1034.57 C577.98 1029.23 577.83 1022.06 576.26 1016.32 C573.28 1010.65 569.62 1007.19 563.62 1004.94 C555.26 1002.72 546.06 1004.49 540.26 1011.32 Z M-398.48 1182.62 C-402.47 1187.99 -402.34 1193.91 -401.74 1200.32 C-400.06 1205.09 -397.47 1207.95 -393.74 1211.32 C-393.16 1211.89 -392.58 1212.47 -391.99 1213.07 C-386.65 1216.03 -379.48 1215.88 -373.74 1214.32 C-368.03 1211.31 -364.62 1207.64 -362.36 1201.6 C-360.55 1194.97 -361.72 1189.78 -364.4 1183.59 C-366.8 1179.52 -370.18 1177.12 -374.66 1175.71 C-384.1 1173.92 -391.65 1175.77 -398.48 1182.62 Z M370.39 1181.13 C366.5 1186.96 365.37 1192.41 366.26 1199.32 C367.89 1205.55 370.76 1209.64 376.12 1213.23 C379.52 1214.96 382.48 1215.38 386.26 1215.32 C386.93 1215.31 387.6 1215.31 388.3 1215.31 C393.66 1214.99 397.46 1213.11 401.26 1209.32 C402.87 1207.04 404.02 1204.84 405.26 1202.32 C405.59 1201.66 405.92 1201 406.26 1200.32 C406.79 1194.11 407.04 1188.51 403.26 1183.32 C397.91 1177.85 394.23 1175.21 386.51 1175.07 C380.15 1175.16 374.77 1176.26 370.39 1181.13 Z M-14.74 1204.32 C-17.89 1210.16 -18.66 1215.93 -17.31 1222.39 C-15.61 1227.92 -12.55 1231.18 -7.74 1234.32 C-2.41 1236.81 3.03 1237.35 8.63 1235.56 C14.56 1233.08 18.44 1230.61 21.01 1224.57 C23.15 1218.21 22.94 1212.42 20.38 1206.21 C17.69 1201.66 13.12 1198.28 8.26 1196.32 C-1.36 1195.01 -8.27 1197.04 -14.74 1204.32 Z " fill="#000000" transform="translate(637.739990234375,-0.315673828125)"/>
<path d="M0 0 C10.42 6.03 16.1 12.76 19.38 24.31 C20.45 28.81 21.38 33.34 22.31 37.88 C23.94 45.64 25.56 53.39 27.56 61.06 C29.05 66.8 30.19 72.54 31.23 78.37 C32.31 84.32 33.86 90.09 35.46 95.91 C36.92 101.34 37.94 106.81 38.9 112.33 C39.17 113.84 39.17 113.84 39.44 115.38 C39.59 116.29 39.75 117.21 39.91 118.16 C40.17 120.28 40.17 120.28 41.38 121.31 C41.71 122.72 41.99 124.14 42.25 125.56 C43.04 129.67 43.92 133.74 44.88 137.81 C45.77 141.66 46.63 145.5 47.38 149.38 C48.09 153.06 48.95 156.68 49.88 160.31 C51.01 164.75 51.98 169.19 52.84 173.68 C53.46 176.74 54.16 179.77 54.88 182.81 C55.77 186.66 56.63 190.5 57.38 194.38 C58.09 198.06 58.95 201.68 59.88 205.31 C61.01 209.75 61.98 214.19 62.84 218.68 C63.46 221.74 64.16 224.77 64.88 227.81 C65.77 231.66 66.63 235.5 67.38 239.38 C68.09 243.06 68.95 246.68 69.88 250.31 C71.01 254.75 71.98 259.19 72.84 263.68 C73.46 266.74 74.16 269.77 74.88 272.81 C75.77 276.66 76.63 280.5 77.38 284.38 C78.09 288.06 78.95 291.68 79.88 295.31 C81.01 299.75 81.98 304.19 82.84 308.68 C83.46 311.74 84.16 314.77 84.88 317.81 C85.77 321.66 86.63 325.5 87.38 329.38 C88.09 333.06 88.95 336.68 89.88 340.31 C95.49 362.59 95.49 362.59 90.78 372.17 C87.28 377.51 82.45 381.36 76.38 383.31 C69.23 384.26 63.38 383.74 57.28 379.79 C48.33 372.84 47.3 363.44 45.57 352.9 C44.56 346.94 43.02 341.24 41.28 335.45 C40.27 331.94 39.54 328.45 38.87 324.87 C38.28 321.83 37.58 318.83 36.88 315.81 C35.98 311.97 35.12 308.13 34.38 304.25 C33.66 300.57 32.8 296.95 31.88 293.31 C30.74 288.88 29.77 284.45 28.91 279.95 C28.07 275.8 27.01 271.69 25.96 267.59 C25.38 264.31 25.38 264.31 25.38 256.31 C-0.37 256.31 -26.11 256.31 -52.62 256.31 C-56.84 271.49 -56.84 271.49 -59.95 286.76 C-60.62 290.31 -60.62 290.31 -61.61 293.77 C-62.9 298.28 -63.68 302.82 -64.48 307.44 C-65.22 311.56 -66.31 315.35 -67.62 319.31 C-68.16 321.96 -68.67 324.59 -69.12 327.25 C-70.01 332.39 -71.19 337.29 -72.62 342.31 C-73.13 344.89 -73.61 347.47 -74.06 350.06 C-76.41 362.92 -78.52 373.23 -89.62 381.31 C-94.54 384.37 -100.03 383.82 -105.62 383.31 C-108.24 382.56 -110.22 381.62 -112.62 380.31 C-112.62 379.65 -112.62 378.99 -112.62 378.31 C-113.58 377.91 -113.58 377.91 -114.56 377.5 C-116.62 376.31 -116.62 376.31 -117.62 373.31 C-118.29 373.31 -118.94 373.31 -119.62 373.31 C-122.53 366.65 -124.09 360.65 -121.7 353.57 C-120.42 349.68 -119.77 345.84 -119.12 341.81 C-118.32 336.77 -117.26 332.16 -115.62 327.31 C-115.09 324.65 -114.58 321.99 -114.12 319.31 C-113.49 315.58 -112.84 311.94 -111.62 308.34 C-110.37 304.54 -109.76 300.76 -109.12 296.81 C-108.32 291.77 -107.26 287.16 -105.62 282.31 C-105.09 279.65 -104.58 276.99 -104.12 274.31 C-103.49 270.58 -102.84 266.94 -101.62 263.34 C-100.37 259.54 -99.76 255.76 -99.12 251.81 C-98.32 246.77 -97.26 242.16 -95.62 237.31 C-95.09 234.65 -94.58 231.99 -94.12 229.31 C-93.49 225.58 -92.84 221.94 -91.62 218.34 C-90.37 214.54 -89.76 210.76 -89.12 206.81 C-88.32 201.77 -87.26 197.16 -85.62 192.31 C-85.09 189.65 -84.58 186.99 -84.12 184.31 C-83.3 179.49 -82.18 174.96 -80.62 170.31 C-80.09 167.67 -79.58 165.03 -79.12 162.38 C-78.24 157.24 -77.06 152.33 -75.62 147.31 C-74.92 143.95 -74.35 140.57 -73.77 137.19 C-73.03 133.07 -71.94 129.27 -70.62 125.31 C-70.09 122.67 -69.58 120.03 -69.12 117.38 C-68.24 112.24 -67.07 107.33 -65.62 102.31 C-65.4 100.86 -65.2 99.4 -65.06 97.94 C-64.62 94.31 -64.62 94.31 -63.62 93.31 C-63.3 91.72 -63.01 90.11 -62.75 88.5 C-62.07 84.57 -61.26 80.73 -60.25 76.88 C-58.85 71.45 -57.75 66 -56.69 60.5 C-55.25 53.09 -53.52 45.86 -51.5 38.59 C-50.51 34.9 -49.76 31.2 -49.05 27.45 C-47.71 20.7 -45.44 15.04 -41.62 9.31 C-40.97 9.31 -40.31 9.31 -39.62 9.31 C-39.62 8.65 -39.62 7.99 -39.62 7.31 C-38.97 7.31 -38.31 7.31 -37.62 7.31 C-37.3 6.32 -36.97 5.33 -36.62 4.31 C-25.34 -3.61 -12.77 -6.07 0 0 Z M-15.62 83.31 C-17.85 91.57 -17.85 91.57 -19.25 100 C-19.62 103.31 -19.62 103.31 -20.62 104.31 C-20.95 105.91 -21.24 107.52 -21.5 109.12 C-22.18 113.05 -22.99 116.89 -24 120.75 C-25.4 126.17 -26.5 131.63 -27.56 137.12 C-28.98 144.42 -30.7 151.52 -32.69 158.68 C-33.84 163.17 -34.67 167.69 -35.48 172.25 C-36.47 177.78 -37.8 183.2 -39.21 188.64 C-40.44 193.42 -41.42 198.21 -42.23 203.08 C-42.62 205.31 -42.62 205.31 -43.24 207.55 C-43.43 208.42 -43.43 208.42 -43.62 209.31 C-42.6 210.56 -42.6 210.56 -40.42 210.43 C-39.44 210.43 -38.47 210.43 -37.46 210.43 C-35.81 210.43 -35.81 210.43 -34.13 210.43 C-32.93 210.42 -31.73 210.42 -30.5 210.41 C-29.28 210.41 -28.06 210.41 -26.8 210.41 C-22.89 210.4 -18.98 210.39 -15.06 210.38 C-12.42 210.37 -9.77 210.37 -7.13 210.36 C-0.63 210.35 5.87 210.33 12.38 210.31 C13.46 205.69 13.01 201.97 12.06 197.38 C11.93 196.68 11.8 195.99 11.67 195.28 C11.06 192.2 10.37 189.29 9.36 186.31 C8.17 182.69 7.59 179.06 7 175.31 C5.87 168.5 4.27 162.06 2.28 155.45 C1.27 151.94 0.54 148.45 -0.13 144.87 C-0.72 141.83 -1.42 138.83 -2.12 135.81 C-3.02 131.97 -3.88 128.13 -4.62 124.25 C-5.34 120.57 -6.2 116.95 -7.12 113.31 C-8.72 107.04 -10.09 100.75 -11.09 94.35 C-11.24 93.37 -11.4 92.39 -11.56 91.38 C-11.76 90.03 -11.76 90.03 -11.96 88.66 C-12.7 86.06 -13.57 85.01 -15.62 83.31 Z " fill="#000000" transform="translate(526.625,449.6875)"/>
<path d="M0 0 C1.18 -0.01 2.36 -0.02 3.57 -0.03 C4.86 -0.03 6.15 -0.03 7.48 -0.03 C8.86 -0.04 10.23 -0.05 11.61 -0.06 C15.34 -0.08 19.07 -0.09 22.81 -0.09 C25.14 -0.1 27.48 -0.1 29.81 -0.11 C37.97 -0.13 46.12 -0.15 54.28 -0.15 C61.86 -0.16 69.45 -0.18 77.04 -0.23 C83.56 -0.26 90.09 -0.28 96.61 -0.28 C100.5 -0.28 104.39 -0.29 108.28 -0.32 C111.95 -0.34 115.61 -0.34 119.28 -0.33 C121.25 -0.33 123.23 -0.35 125.2 -0.37 C132.81 -0.31 138.01 0.77 144.23 5.27 C144.23 5.93 144.23 6.59 144.23 7.27 C144.89 7.27 145.55 7.27 146.23 7.27 C151.05 14.1 152.45 19.97 151.23 28.27 C149.19 34.84 145.2 39.5 139.29 43.02 C124.76 48.95 97.2 46.06 88.23 46.27 C88.23 143.29 88.23 240.31 88.23 340.27 C102.09 340.6 115.95 340.93 130.23 341.27 C139.31 343.55 143.85 345.95 149.23 353.27 C151.88 358.83 152.01 364.22 151.23 370.27 C149.91 373.55 148.26 376.4 146.23 379.27 C145.57 379.27 144.91 379.27 144.23 379.27 C144.23 379.93 144.23 380.59 144.23 381.27 C136.84 386.61 130.4 386.99 121.48 386.91 C120.11 386.91 118.75 386.92 117.38 386.93 C113.69 386.95 110 386.93 106.31 386.91 C102.43 386.9 98.56 386.91 94.68 386.91 C88.18 386.91 81.68 386.9 75.17 386.87 C67.67 386.84 60.16 386.84 52.66 386.86 C45.42 386.87 38.18 386.87 30.94 386.85 C27.87 386.84 24.8 386.84 21.72 386.85 C18.1 386.86 14.48 386.85 10.86 386.82 C8.91 386.81 6.96 386.82 5.01 386.83 C-3.15 386.74 -8.63 385.77 -15.02 380.38 C-19.53 375.07 -21.45 370.88 -22.09 363.84 C-21.52 357.33 -19.37 352.02 -14.77 347.27 C-14.11 347.27 -13.45 347.27 -12.77 347.27 C-12.77 346.61 -12.77 345.95 -12.77 345.27 C3.53 336.35 25.37 341.27 42.23 341.27 C42.23 243.59 42.23 145.91 42.23 45.27 C28.04 45.27 13.85 45.27 -0.77 45.27 C-9.77 43.02 -9.77 43.02 -12.77 41.27 C-12.77 40.61 -12.77 39.95 -12.77 39.27 C-13.37 39.03 -13.97 38.78 -14.59 38.52 C-18.31 36.4 -19.5 34.01 -20.96 30.02 C-22.49 22.99 -22.31 17.92 -19.18 11.45 C-14.68 4.48 -8.29 0.04 0 0 Z " fill="#000000" transform="translate(681.7733612060547,446.72584533691406)"/>
</svg>
